<svg width="28" height="24" viewBox="0 0 28 24" fill="none" xmlns="http://www.w3.org/2000/svg">
<path fill-rule="evenodd" clip-rule="evenodd" d="M13.5165 4.25159C10.0939 4.25159 7.95536 5.9736 7.09934 9.41764C8.38287 7.69562 9.88016 7.04999 11.5912 7.48024C12.5674 7.72566 13.2655 8.4385 14.0376 9.22772C15.2959 10.5129 16.7525 12.0002 19.9332 12.0002C23.3552 12.0002 25.4943 10.2781 26.3498 6.83461C25.0668 8.55663 23.5695 9.20226 21.8585 8.7715C20.8817 8.52608 20.1836 7.81324 19.4116 7.02453C18.1532 5.73837 16.6972 4.25159 13.5165 4.25159ZM7.09934 12.0002C3.67725 12.0002 1.5382 13.7222 0.682678 17.1662C1.96621 15.4442 3.4635 14.7986 5.17404 15.2288C6.15077 15.4742 6.84887 16.1871 7.6209 16.9763C8.87928 18.2614 10.3353 19.7487 13.5165 19.7487C16.9386 19.7487 19.0776 18.0272 19.9332 14.5832C18.6496 16.3052 17.1523 16.9508 15.4413 16.5206C14.4651 16.2747 13.767 15.5618 12.9949 14.7731C11.7366 13.488 10.28 12.0002 7.09934 12.0002Z" fill="#38BDF8"/>
</svg>
